<svg width="29" height="26" viewBox="0 0 29 26" fill="none" xmlns="http://www.w3.org/2000/svg">
<path d="M3.99996 8.41408L0.756958 5.17208L2.17196 3.75708L5.41396 7.00008H20.656C20.8118 7.00007 20.9655 7.03649 21.1048 7.10645C21.2441 7.1764 21.3651 7.27794 21.4582 7.40298C21.5513 7.52801 21.6138 7.67306 21.6409 7.82657C21.6679 7.98007 21.6587 8.13777 21.614 8.28708L19.214 16.2871C19.1522 16.4932 19.0257 16.6738 18.8531 16.8023C18.6805 16.9307 18.4711 17.0001 18.256 17.0001H5.99996V19.0001H17V21.0001H4.99996C4.73474 21.0001 4.48039 20.8947 4.29285 20.7072C4.10531 20.5197 3.99996 20.2653 3.99996 20.0001V8.41408ZM5.49996 25.0001C5.10213 25.0001 4.7206 24.842 4.4393 24.5607C4.15799 24.2794 3.99996 23.8979 3.99996 23.5001C3.99996 23.1023 4.15799 22.7207 4.4393 22.4394C4.7206 22.1581 5.10213 22.0001 5.49996 22.0001C5.89778 22.0001 6.27931 22.1581 6.56062 22.4394C6.84192 22.7207 6.99996 23.1023 6.99996 23.5001C6.99996 23.8979 6.84192 24.2794 6.56062 24.5607C6.27931 24.842 5.89778 25.0001 5.49996 25.0001ZM17.5 25.0001C17.1021 25.0001 16.7206 24.842 16.4393 24.5607C16.158 24.2794 16 23.8979 16 23.5001C16 23.1023 16.158 22.7207 16.4393 22.4394C16.7206 22.1581 17.1021 22.0001 17.5 22.0001C17.8978 22.0001 18.2793 22.1581 18.5606 22.4394C18.8419 22.7207 19 23.1023 19 23.5001C19 23.8979 18.8419 24.2794 18.5606 24.5607C18.2793 24.842 17.8978 25.0001 17.5 25.0001Z" fill="white"/>
<path fill-rule="evenodd" clip-rule="evenodd" d="M25.6 1C25.6 0.447715 25.1523 0 24.6 0C24.0477 0 23.6 0.447715 23.6 1V3.3999H21C20.4477 3.3999 20 3.84762 20 4.3999C20 4.95219 20.4477 5.3999 21 5.3999H23.6V8C23.6 8.55229 24.0477 9 24.6 9C25.1523 9 25.6 8.55229 25.6 8V5.3999H28C28.5523 5.3999 29 4.95219 29 4.3999C29 3.84762 28.5523 3.3999 28 3.3999H25.6V1Z" fill="white"/>
</svg>
