<svg width="60" height="60" viewBox="0 0 60 60" fill="none" xmlns="http://www.w3.org/2000/svg">
<path d="M10.0001 16.035L1.89258 7.93002L5.43008 4.39252L13.5351 12.5H51.6401C52.0297 12.5 52.414 12.5911 52.7622 12.7659C53.1105 12.9408 53.413 13.1947 53.6457 13.5073C53.8783 13.8198 54.0347 14.1825 54.1023 14.5662C54.1699 14.95 54.1469 15.3442 54.0351 15.7175L48.0351 35.7175C47.8807 36.2327 47.5643 36.6844 47.1329 37.0055C46.7014 37.3266 46.1779 37.5001 45.6401 37.5H15.0001V42.5H42.5001V47.5H12.5001C11.837 47.5 11.2012 47.2366 10.7323 46.7678C10.2635 46.2989 10.0001 45.6631 10.0001 45V16.035ZM13.7501 57.5C12.7555 57.5 11.8017 57.1049 11.0984 56.4017C10.3952 55.6984 10.0001 54.7446 10.0001 53.75C10.0001 52.7555 10.3952 51.8016 11.0984 51.0984C11.8017 50.3951 12.7555 50 13.7501 50C14.7446 50 15.6985 50.3951 16.4017 51.0984C17.105 51.8016 17.5001 52.7555 17.5001 53.75C17.5001 54.7446 17.105 55.6984 16.4017 56.4017C15.6985 57.1049 14.7446 57.5 13.7501 57.5ZM43.7501 57.5C42.7555 57.5 41.8017 57.1049 41.0984 56.4017C40.3952 55.6984 40.0001 54.7446 40.0001 53.75C40.0001 52.7555 40.3952 51.8016 41.0984 51.0984C41.8017 50.3951 42.7555 50 43.7501 50C44.7446 50 45.6985 50.3951 46.4017 51.0984C47.105 51.8016 47.5001 52.7555 47.5001 53.75C47.5001 54.7446 47.105 55.6984 46.4017 56.4017C45.6985 57.1049 44.7446 57.5 43.7501 57.5Z" fill="#CCCCCC"/>
</svg>
