<svg width="24" height="24" viewBox="0 0 24 24" fill="none" xmlns="http://www.w3.org/2000/svg">
<path fill-rule="evenodd" clip-rule="evenodd" d="M22.0618 7.46211C22.2503 7.27705 22.4007 7.05643 22.5045 6.81287C22.6082 6.56931 22.6633 6.30758 22.6665 6.0426C22.6697 5.77763 22.6211 5.51461 22.5233 5.26857C22.4255 5.02252 22.2805 4.79827 22.0966 4.60861C21.9126 4.41895 21.6934 4.2676 21.4513 4.1632C21.2093 4.0588 20.9492 4.0034 20.6858 4.00015C20.4225 3.9969 20.1611 4.04588 19.9166 4.14428C19.6721 4.24268 19.4492 4.38858 19.2607 4.57365L8.50004 15.1485L4.70734 11.3161C4.32801 10.959 3.82576 10.7641 3.30639 10.7723C2.78703 10.7805 2.29112 10.9913 1.92314 11.3602C1.55516 11.729 1.34384 12.2272 1.33371 12.7498C1.32358 13.2724 1.51543 13.7785 1.86883 14.1615L7.06208 19.4059C7.43456 19.7825 7.93962 19.9959 8.46758 19.9999C8.99554 20.004 9.50377 19.7982 9.88188 19.4275L22.0618 7.46211Z" fill="#2CB44D"/>
</svg>
