<svg width="60" height="60" viewBox="0 0 60 60" fill="none" xmlns="http://www.w3.org/2000/svg">
<g clip-path="url(#clip0_56_1838)">
<path d="M26.25 5C22.8615 5.00029 19.5222 5.81091 16.5107 7.36423C13.4991 8.91756 10.9028 11.1685 8.93811 13.9294C6.97347 16.6902 5.69755 19.8809 5.21679 23.2351C4.73604 26.5894 5.0644 30.0099 6.17447 33.2115C7.28454 36.413 9.14414 39.3026 11.5981 41.6393C14.0521 43.976 17.0293 45.6919 20.2813 46.644C23.5333 47.5961 26.9659 47.7566 30.2926 47.1123C33.6193 46.4679 36.7436 45.0374 39.405 42.94L48.535 52.07C48.7656 52.3088 49.0415 52.4992 49.3465 52.6303C49.6515 52.7613 49.9796 52.8302 50.3115 52.8331C50.6435 52.836 50.9727 52.7728 51.2799 52.6471C51.5871 52.5214 51.8663 52.3357 52.101 52.101C52.3357 51.8663 52.5214 51.5871 52.6471 51.2799C52.7728 50.9726 52.836 50.6434 52.8331 50.3115C52.8303 49.9795 52.7613 49.6515 52.6303 49.3465C52.4992 49.0415 52.3088 48.7656 52.07 48.535L42.94 39.405C45.41 36.2715 46.9479 32.506 47.3778 28.5393C47.8076 24.5726 47.112 20.5651 45.3706 16.9752C43.6291 13.3854 40.9122 10.3584 37.5308 8.24058C34.1493 6.12277 30.2399 4.99973 26.25 5Z" fill="#CCCCCC"/>
</g>
<defs>
<clipPath id="clip0_56_1838">
<rect width="60" height="60" fill="white"/>
</clipPath>
</defs>
</svg>
